<svg width="373" height="45" viewBox="0 0 373 45" fill="none" xmlns="http://www.w3.org/2000/svg">
<g clip-path="url(#clip0_53_75)">
<path d="M13.4515 7.1668C14.941 5.99775 17.2865 5.4217 20.471 5.4217C23.6212 5.4217 26.7201 5.87915 29.7847 6.82795C32.8493 7.7598 35.8797 9.14911 38.8758 10.9959L39.047 10.945L38.2594 5.23533C36.6501 4.2357 34.8867 3.35468 32.952 2.62614C31.0174 1.8976 28.9629 1.32155 26.7885 0.931864C24.6142 0.54218 22.3371 0.338867 19.9574 0.338867C14.8725 0.338867 11.123 1.33849 8.69189 3.35468C6.26074 5.37087 5.04516 8.26808 5.04516 12.0633V12.5885H0.0458984L0.456797 17.2816H4.9938V44.5764H11.2942V17.2647H14.3075H16.2079H34.2532H36.205V32.1913C35.8625 33.3942 35.1948 34.3261 34.1333 34.9529C33.0205 35.6137 31.5139 35.9356 29.5963 35.9356C27.6617 35.9356 26.2064 35.5629 25.2819 34.8005C24.3403 34.055 23.878 32.852 23.878 31.1917V30.9714C23.878 29.3618 24.3403 28.1928 25.2477 27.4304C26.1551 26.6679 27.5418 26.2952 29.408 26.2952C30.1613 26.2952 30.8804 26.3291 31.531 26.3968C32.1816 26.4646 32.815 26.5663 33.4314 26.7188L33.0034 21.7545C32.2672 21.5682 31.4625 21.4326 30.6407 21.314C29.8018 21.2124 28.9115 21.1446 27.9699 21.1446C24.5115 21.1446 21.8749 21.9578 20.0943 23.5674C18.2966 25.1939 17.4064 27.6337 17.4064 30.8867V31.4119C17.4064 34.6819 18.3138 37.1386 20.1114 38.7481C21.9091 40.3577 24.443 41.1709 27.6788 41.1709C29.2882 41.1709 30.6407 40.9846 31.7364 40.6288C32.8322 40.273 33.7396 39.7477 34.4244 39.07C35.1092 38.3923 35.6057 37.5621 35.931 36.6133H36.2392V44.5595H42.5225V17.2647H44.8852H45.57H47.4362H60.9787V20.7549C60.0542 20.7041 59.1468 20.6363 58.188 20.6363C54.8666 20.6363 52.4526 21.1107 50.9288 22.0764C49.4222 23.0422 48.6689 24.4484 48.6689 26.3291V26.4985C48.6689 27.9725 49.1654 29.1246 50.1413 29.9887C51.1171 30.8528 52.7607 31.4119 55.072 31.6491V31.8524C52.7607 32.0727 51.1514 32.6487 50.2269 33.5636C49.3195 34.4955 48.8572 35.6476 48.8572 37.0539V37.2572C48.8572 39.4767 49.8331 41.1709 51.7849 42.3569C53.7366 43.5429 56.8526 44.119 61.1328 44.119C63.3756 44.119 65.2589 43.9157 66.7826 43.526C68.3064 43.1363 69.5048 42.5603 70.4122 41.7978C71.3025 41.0354 71.9531 40.1035 72.364 39.0023H72.638V44.9661H78.9384V17.2647H81.9516H83.8521H86.4887V44.5595H92.7891V17.2647H97.7028L97.3432 12.5715H83.4925H81.5407H47.0424H45.1762H44.4914H33.9108H15.8484H13.9822H11.2086V12.2835C11.2086 10.0301 11.962 8.33586 13.4515 7.1668ZM67.0223 25.5328V25.3633V21.331V17.2647H72.6208V34.8174C71.9874 36.2067 70.943 37.2741 69.4021 37.9518C67.7756 38.6634 65.5328 39.0192 62.6908 39.0192C60.8075 39.0192 59.318 38.9345 58.2565 38.7481C57.195 38.5618 56.4417 38.2907 55.9966 37.901C55.5514 37.5282 55.3289 37.0538 55.3289 36.5117V36.3592C55.3289 35.8679 55.4829 35.4443 55.774 35.1224C56.065 34.8005 56.6129 34.5463 57.4005 34.3769C58.2051 34.2075 59.3351 34.1227 60.8246 34.1058L65.8924 34.0042L65.9266 29.616L60.7561 29.5143C59.2324 29.4804 58.0682 29.3957 57.2635 29.2432C56.4588 29.0907 55.8938 28.8705 55.5857 28.5655C55.2775 28.2606 55.1234 27.8878 55.1234 27.4304V27.2948C55.1234 26.8543 55.2775 26.4477 55.5857 26.1258C55.8938 25.8039 56.4417 25.5497 57.195 25.3803C57.9483 25.2109 59.0269 25.1261 60.3795 25.1261C61.4581 25.1261 62.5025 25.16 63.5297 25.2278C64.557 25.3125 65.7212 25.4142 67.0223 25.5328Z" fill="white"/>
<path d="M119.395 7.16677C120.884 5.99772 123.23 5.42166 126.431 5.42166C129.565 5.42166 132.681 5.87912 135.745 6.82791C138.827 7.75976 141.857 9.14907 144.836 10.9958L145.007 10.945L144.22 5.23529C142.611 4.23567 140.847 3.35464 138.912 2.6261C136.978 1.89757 134.923 1.32151 132.749 0.931827C130.575 0.542144 128.298 0.33883 125.918 0.33883C120.833 0.33883 117.084 1.33845 114.652 3.35464C112.221 5.37083 111.006 8.26805 111.006 12.0632V12.5885H105.989L106.4 17.2816H110.937V44.5764H117.238V17.2647H120.251H122.151H140.214H142.148V32.1912C141.806 33.3772 141.138 34.3091 140.077 34.936C138.964 35.5967 137.457 35.9187 135.54 35.9187C133.605 35.9187 132.167 35.5459 131.225 34.7835C130.284 34.038 129.821 32.8351 129.821 31.1747V30.9544C129.821 29.3449 130.267 28.1758 131.191 27.4134C132.098 26.651 133.485 26.2782 135.351 26.2782C136.105 26.2782 136.824 26.3121 137.474 26.3799C138.142 26.4476 138.758 26.5493 139.375 26.7018L138.947 21.7375C138.211 21.5512 137.423 21.4156 136.584 21.297C135.745 21.1954 134.855 21.1276 133.913 21.1276C130.455 21.1276 127.818 21.9409 126.021 23.5504C124.223 25.1769 123.333 27.6167 123.333 30.8697V31.3949C123.333 34.6649 124.24 37.1216 126.038 38.7311C127.835 40.3407 130.369 41.154 133.605 41.154C135.214 41.154 136.567 40.9676 137.663 40.6118C138.758 40.256 139.666 39.7308 140.351 39.0531C141.035 38.3753 141.532 37.5452 141.857 36.5964H142.148V44.5425H148.432V17.2647H150.777H151.394H153.345H170.432H172.349V24.7025H162.676H160.382H157.232L154.15 26.8034C154.287 28.3452 154.492 29.7684 154.783 31.1069C155.074 32.4454 155.434 33.7161 155.862 34.936C156.29 36.1558 156.787 37.3588 157.352 38.5278H162.693V29.7515H172.366V44.5425H178.65V17.2647H181.047H181.646H183.581H190.634C190.908 17.5866 191.148 17.9424 191.302 18.3151C191.644 19.1114 191.816 20.0602 191.816 21.1784V21.4326C191.816 22.3814 191.644 23.1607 191.268 23.7876C190.908 24.3976 190.292 24.872 189.453 25.1769C188.614 25.4819 187.467 25.6344 186.029 25.6344H184.813C184.728 26.4138 184.659 27.0915 184.625 27.7183C184.591 28.3283 184.556 28.9552 184.556 29.5482V29.8193C184.556 33.2586 185.549 35.9017 187.535 37.7485C189.521 39.5952 192.278 40.5271 195.822 40.5271C198.493 40.5271 200.513 40.0696 201.883 39.1717C203.252 38.2737 204.194 37.0708 204.708 35.5798H205.016V44.5425H211.299V17.2647H213.833H214.261H216.213H233.299H235.217V24.7025H225.544H223.232H220.099L217 26.8034C217.137 28.3452 217.343 29.7684 217.634 31.1069C217.925 32.4454 218.284 33.7161 218.712 34.936C219.14 36.1558 219.637 37.3588 220.202 38.5278H225.544V29.7515H235.217V44.5425H241.5V17.2647H243.914H246.448L246.088 12.5715H243.555H232.957H215.87H213.919H213.456H210.357C209.861 12.1141 209.279 11.5719 208.491 10.8264C207.584 9.97927 206.591 9.04741 205.512 8.01391C204.434 6.99734 203.355 5.94689 202.259 4.91338C201.164 3.87987 200.171 2.93107 199.263 2.06699C198.356 1.20291 197.62 0.508258 197.055 -0.0169678H189.059V0.609915L194.504 5.59109C195.394 6.43823 196.233 7.16677 197.02 7.79365C197.791 8.42053 198.578 8.99659 199.366 9.52181C200.153 10.047 200.992 10.5214 201.883 10.9789C202.773 11.4194 203.766 11.8769 204.879 12.3343V12.5546H202.756H183.238H181.304H180.704H170.089H153.003H151.051H150.435H139.854H121.792H119.926H117.152V12.2835C117.152 10.0301 117.905 8.33582 119.395 7.16677ZM197.842 18.6709C197.654 18.1457 197.397 17.6882 197.072 17.2647H203.098H205.05V31.2424C204.656 32.4284 203.937 33.3942 202.824 34.1058C201.592 34.8682 199.811 35.2579 197.483 35.2579C195.908 35.2579 194.623 35.0376 193.63 34.5971C192.637 34.1566 191.901 33.5297 191.422 32.7504C190.942 31.954 190.703 31.0222 190.703 29.9717V29.8193C193.1 29.599 194.949 28.9891 196.164 27.9386C197.62 26.651 198.356 24.7703 198.356 22.2628V21.907C198.322 20.6532 198.167 19.5858 197.842 18.6709Z" fill="white"/>
<path d="M258.159 35.0207L262.028 35.3426L269.972 44.5425H278.207V44.1867L273.653 39.4089C272.951 38.6634 272.249 37.9857 271.547 37.3927C270.862 36.7997 270.126 36.2575 269.339 35.7492C268.774 35.3934 268.106 35.0546 267.438 34.7157C271.136 34.5124 274.03 33.6653 276.016 32.0388C278.276 30.192 279.389 27.2778 279.389 23.2963V22.1611C279.389 18.8064 278.532 16.2481 276.803 14.503C275.074 12.7579 272.489 11.8938 269.03 11.8938C265.812 11.8938 263.329 12.6223 261.617 14.0794C259.905 15.5365 259.049 17.6713 259.049 20.4668V20.7718C259.049 21.7375 259.135 22.6355 259.323 23.4657C259.494 24.2959 259.802 25.0922 260.247 25.8546H266.188C265.829 25.1769 265.572 24.4653 265.401 23.7537C265.23 23.0421 265.144 22.2628 265.144 21.4326V21.1784C265.144 19.7044 265.469 18.637 266.12 17.9593C266.77 17.2816 267.746 16.9427 269.048 16.9427C270.383 16.9427 271.376 17.3324 272.027 18.1118C272.677 18.8912 273.002 20.1788 273.002 21.9578V22.9066C273.002 24.6686 272.677 26.058 272.061 27.1084C271.427 28.1589 270.417 28.9213 269.013 29.3787C267.627 29.8362 265.795 30.0734 263.552 30.0734C262.627 30.0734 261.754 30.0564 260.932 30.0395C260.111 30.0056 259.186 29.9717 258.125 29.904L258.142 29.9378H258.125V35.0207H258.159Z" fill="white"/>
<path d="M295.738 12.5715H293.992H293.821H282.624H281.306L281.631 17.2647H282.966H284.884V44.5595H291.167V17.2647H294.215H294.335H296.115H298.752V44.5595H305.052V17.2647H308.065H309.966H310.702C311.952 17.2647 312.791 17.5357 313.236 18.061C313.681 18.5862 313.886 19.5519 313.886 20.9412V28.3113L311.13 29.9209C311.25 31.3272 311.455 32.6318 311.746 33.8516C312.037 35.0715 312.414 36.2236 312.842 37.3249C313.27 38.4262 313.75 39.5105 314.297 40.561H320.153V32.9876H330.203V44.5933H336.503V17.2647H339.379H339.893H341.417H358.914H360.832V22.8558H353.11C349.498 22.8558 346.861 23.6521 345.217 25.2447C343.574 26.8373 342.752 29.0229 342.752 31.8185C342.752 33.8855 343.077 35.9864 343.728 38.0873C344.379 40.1882 345.337 42.34 346.604 44.5425H353.384C352.049 42.1197 351.039 39.9341 350.337 37.9857C349.652 36.0373 349.309 34.2074 349.309 32.5132C349.309 30.9544 349.686 29.7854 350.474 29.0229C351.244 28.2605 352.511 27.8878 354.24 27.8878H360.815V44.5595H367.098V17.2647H369.529H372.029L371.669 12.5715H369.169H366.139C365.643 12.1141 365.06 11.5719 364.273 10.8264C363.366 9.97927 362.372 9.04742 361.294 8.01391C360.215 6.99734 359.137 5.94689 358.041 4.91338C356.945 3.87987 355.952 2.93107 355.045 2.06699C354.137 1.20291 353.418 0.525201 352.853 -2.50021e-05H344.858V0.626858L350.302 5.60803C351.193 6.45517 352.032 7.18371 352.802 7.81059C353.572 8.43748 354.36 9.01353 355.148 9.53876C355.935 10.064 356.774 10.5384 357.664 10.9958C358.555 11.4363 359.548 11.8938 360.66 12.3513V12.5715H358.555H341.057H339.551H339.037H327.926H326.487L326.864 17.2647H328.302H330.203V27.9386H320.153V20.7888C320.153 18.8403 319.879 17.2477 319.348 16.0617C318.8 14.8588 317.927 13.9778 316.694 13.4187C315.479 12.8595 313.818 12.5715 311.712 12.5715H309.606H307.706H304.128C303.631 12.1141 303.049 11.5719 302.261 10.8264C301.354 9.97927 300.361 9.04742 299.282 8.01391C298.204 6.99734 297.125 5.94689 296.03 4.91338C294.934 3.87987 293.941 2.93107 293.033 2.06699C292.126 1.20291 291.39 0.508258 290.825 -0.0169678H282.829V0.609915L288.274 5.59109C289.164 6.43823 290.003 7.16677 290.773 7.79365C291.544 8.42053 292.331 8.99659 293.119 9.52181C293.907 10.047 294.745 10.5214 295.636 10.9789C296.526 11.4194 297.519 11.8769 298.632 12.3343V12.5546H295.738V12.5715Z" fill="white"/>
</g>
<defs>
<clipPath id="clip0_53_75">
<rect width="372" height="45" fill="white" transform="translate(0.0458984)"/>
</clipPath>
</defs>
</svg>
